<svg xmlns="http://www.w3.org/2000/svg" viewBox="0 0 36 36"><defs><style>.cls-1{fill:#e1306c;}.cls-2{fill:#fff;}</style></defs><title>Instagram_2</title><g id="Layer_2" data-name="Layer 2"><g id="Instagram"><g id="Background_Flat" data-name="Background Flat"><rect class="cls-1" width="36" height="36" rx="6.26" ry="6.26"/></g><path id="Body" class="cls-2" d="M22.92,29.93H13.14a6.82,6.82,0,0,1-6.8-6.8V12.71a6.82,6.82,0,0,1,6.8-6.8h9.78a6.82,6.82,0,0,1,6.8,6.8V23.13A6.82,6.82,0,0,1,22.92,29.93Zm0-1.8a5,5,0,0,0,5-5V12.71a5,5,0,0,0-5-5H13.14a5,5,0,0,0-5,5V23.13a5,5,0,0,0,5,5Z"/><path id="Lens" class="cls-2" d="M24.51,17.82a6.44,6.44,0,1,1-6.44-6.44A6.44,6.44,0,0,1,24.51,17.82ZM18,13.61a4.22,4.22,0,1,0,4.22,4.22A4.22,4.22,0,0,0,18,13.61Z"/><circle id="Flash" class="cls-2" cx="24.61" cy="11.28" r="1.52"/></g></g></svg>