<svg xmlns="http://www.w3.org/2000/svg" viewBox="0 0 36 36"><defs><style>.cls-1{fill:#28aae1;}.cls-2{fill:#fff;}</style></defs><title>Twitter</title><g id="Layer_2" data-name="Layer 2"><g id="Twitter"><g id="Background"><rect class="cls-1" width="36" height="36" rx="6.26" ry="6.26"/></g><path id="Bird" class="cls-2" d="M7.72,9.13a13.7,13.7,0,0,0,10,5.16s-.72-4,2.47-5.5a4.93,4.93,0,0,1,6,.94,8.06,8.06,0,0,0,3.13-1.09s-.72,2-2,2.6a8.57,8.57,0,0,0,2.59-.66,7.66,7.66,0,0,1-2.41,2.53,18.29,18.29,0,0,1-.91,5.78c-.91,2-3.37,6.13-6.44,7.38a15,15,0,0,1-6.81,1.59A14,14,0,0,1,6,25.59a10.94,10.94,0,0,0,7.16-2A5,5,0,0,1,8.66,20a3.29,3.29,0,0,0,2.09,0,5.21,5.21,0,0,1-2.84-1.75,4.94,4.94,0,0,1-1-3.09,3.61,3.61,0,0,0,2.25.53S8,15.29,7.13,13a4.6,4.6,0,0,1,.55-3.85Z"/></g></g></svg>