<svg xmlns="http://www.w3.org/2000/svg" viewBox="0 0 36 36"><defs><style>.cls-1{fill:red;}.cls-2{fill:#fff;}</style></defs><title>YouTube_2</title><g id="Layer_2" data-name="Layer 2"><g id="Youtube"><g id="Background"><rect class="cls-1" width="36" height="36" rx="6.26" ry="6.26"/></g><path id="Button" class="cls-2" d="M6.2,18a33.63,33.63,0,0,0,.45,5.54,2.88,2.88,0,0,0,2.46,2.34c1.83.44,8.92.48,8.92.48s7.1,0,8.92-.48a2.88,2.88,0,0,0,2.46-2.34A33.63,33.63,0,0,0,29.87,18a33.63,33.63,0,0,0-.45-5.54A2.88,2.88,0,0,0,27,10.12C25.13,9.68,18,9.65,18,9.65s-7.1,0-8.92.48a2.88,2.88,0,0,0-2.46,2.34A33.63,33.63,0,0,0,6.2,18Z"/><polygon id="Arrow" class="cls-1" points="15.42 14.51 15.42 21.51 21.56 18.01 15.42 14.51"/></g></g></svg>